<svg width="285" height="74" viewBox="0 0 285 74" fill="none" xmlns="http://www.w3.org/2000/svg">
<path d="M35.5016 60.6067L41.1476 56.71V24.7445H35.5016V60.6067Z" fill="#7A9DCA"/>
<path d="M22.5773 14.7954H13.884V20.4799H22.5773V14.7954Z" fill="#7A9DCA"/>
<path d="M65.7429 33.311C65.1048 36.691 64.18 39.801 63.0517 42.6549C60.4623 49.2565 56.837 54.4848 53.3134 58.442C44.5832 68.2374 34.8357 72.3856 34.4241 72.5578L33.356 73.0048L32.2878 72.5578C31.8763 72.3856 22.1241 68.2374 13.3938 58.442C10.8506 55.5881 8.25187 52.0638 6.03232 47.8365C5.4728 46.7797 4.94104 45.681 4.43701 44.5404H10.5547C12.3858 48.1298 14.7117 51.5145 17.5416 54.6943C23.8211 61.7429 30.7387 65.5791 33.3421 66.8687C35.9778 65.5605 43.011 61.6497 49.2998 54.5313C53.4522 49.8291 56.5133 44.6707 58.4832 39.0747C58.5017 39.0281 58.5155 38.9769 58.5386 38.9257H50.2662V33.311H65.7429Z" fill="#225CA6"/>
<path d="M66.5061 27.6962H60.9433C61.3733 22.9196 61.1468 17.8869 60.2451 12.6167L33.3515 5.79158L6.46251 12.6121C5.26487 19.6141 5.251 26.1971 6.40702 32.3193C6.42089 32.3658 6.43014 32.417 6.43476 32.4682C6.48563 32.7476 6.54112 33.0269 6.60123 33.3062H16.432V38.9209H2.35633C1.83844 37.2402 1.39453 35.4758 1.03385 33.6321C-0.307131 26.7977 -0.473597 18.8739 1.31129 9.78144L1.65348 8.04024L33.3515 0L65.0541 8.04024L65.3963 9.78144C66.691 16.3552 66.9592 22.3144 66.5061 27.6962Z" fill="#225CA6"/>
<path d="M65.7429 33.311C65.1048 36.691 64.18 39.801 63.0517 42.6549C60.4623 49.2565 56.837 54.4848 53.3134 58.442C44.5832 68.2374 34.8357 72.3856 34.4241 72.5578L33.356 73.0048L32.2878 72.5578C31.8763 72.3856 22.1241 68.2374 13.3938 58.442C10.8506 55.5881 8.25187 52.0638 6.03232 47.8365C5.4728 46.7797 4.94104 45.681 4.43701 44.5404H10.5547C12.3858 48.1298 14.7117 51.5145 17.5416 54.6943C23.8211 61.7429 30.7387 65.5791 33.3421 66.8687C35.9778 65.5605 43.011 61.6497 49.2998 54.5313C53.4522 49.8291 56.5133 44.6707 58.4832 39.0747C58.5017 39.0281 58.5155 38.9769 58.5386 38.9257H50.2662V33.311H65.7429Z" fill="#225CA6"/>
<path d="M66.5061 27.6962H60.9433C61.3733 22.9196 61.1468 17.8869 60.2451 12.6167L33.3515 5.79158L6.46251 12.6121C5.26487 19.6141 5.251 26.1971 6.40702 32.3193C6.42089 32.3658 6.43014 32.417 6.43476 32.4682C6.48563 32.7476 6.54112 33.0269 6.60123 33.3062H16.432V38.9209H2.35633C1.83844 37.2402 1.39453 35.4758 1.03385 33.6321C-0.307131 26.7977 -0.473597 18.8739 1.31129 9.78144L1.65348 8.04024L33.3515 0L65.0541 8.04024L65.3963 9.78144C66.691 16.3552 66.9592 22.3144 66.5061 27.6962Z" fill="#225CA6"/>
<path d="M26.2164 14.7955V56.71L31.8624 60.6067V20.48H52.8233V14.7955H26.2164Z" fill="#225CA6"/>
<path d="M91.24 43.5209V39.6102H81.5249V43.5209H77.1042V35.5318H78.8799C79.2637 35.0337 79.5319 34.4936 79.6845 33.907C79.8371 33.3251 79.9388 32.6035 79.9943 31.7422L81.0255 10.4753H93.7555V35.5272H95.7393V43.5162H91.24V43.5209ZM84.4611 31.663C84.4057 32.7711 84.2762 33.6044 84.0681 34.1584C83.86 34.7124 83.5641 35.1734 83.1803 35.5318H89.1315V14.6421H85.2889L84.4611 31.663Z" fill="#2F333A"/>
<path d="M97.7507 17.4727C97.7507 15.117 98.3426 13.3059 99.5264 12.0442C100.71 10.7826 102.421 10.1494 104.65 10.1494C106.879 10.1494 108.59 10.7826 109.773 12.0442C110.957 13.3059 111.549 15.117 111.549 17.4727V32.6221C111.549 34.9824 110.957 36.7888 109.773 38.0551C108.59 39.3168 106.879 39.95 104.65 39.95C102.421 39.95 100.71 39.3215 99.5264 38.0551C98.3426 36.7935 97.7507 34.9824 97.7507 32.6221V17.4727ZM102.296 32.9107C102.296 33.9675 102.509 34.7078 102.939 35.1361C103.364 35.5691 103.938 35.7832 104.654 35.7832C105.371 35.7832 105.945 35.5691 106.37 35.1361C106.795 34.7078 107.013 33.9629 107.013 32.9107V17.1794C107.013 16.1272 106.8 15.3823 106.37 14.954C105.945 14.5257 105.371 14.3069 104.654 14.3069C103.938 14.3069 103.364 14.521 102.939 14.954C102.514 15.3823 102.296 16.1272 102.296 17.1794V32.9107Z" fill="#2F333A"/>
<path d="M120.977 10.48C123.345 10.48 125.06 11.034 126.124 12.1467C127.183 13.2547 127.715 14.9354 127.715 17.1841V18.2269C127.715 19.726 127.479 20.9598 127.012 21.9328C126.545 22.9058 125.8 23.6274 124.778 24.0977C126.018 24.5679 126.892 25.3407 127.405 26.4068C127.914 27.473 128.168 28.7859 128.168 30.3408V32.7152C128.168 34.9639 127.59 36.6771 126.434 37.855C125.278 39.0329 123.553 39.6241 121.269 39.6241H114.12V10.48H120.977ZM118.661 14.6421V22.3425H120.436C121.292 22.3425 121.958 22.119 122.443 21.6767C122.924 21.2345 123.165 20.429 123.165 19.2651V17.6403C123.165 16.5882 122.98 15.8246 122.605 15.3498C122.235 14.8795 121.648 14.6421 120.848 14.6421H118.661ZM118.661 26.4999V35.448H121.264C122.036 35.448 122.619 35.2385 123.021 34.8242C123.419 34.4098 123.622 33.6603 123.622 32.5755V30.0382C123.622 28.6788 123.396 27.7477 122.938 27.2495C122.485 26.7514 121.731 26.4999 120.686 26.4999H118.661Z" fill="#2F333A"/>
<path d="M135.118 22.7568H141.36V26.919H135.118V35.448H142.97V39.6102H130.568V10.48H142.97V14.6421H135.118V22.7568Z" fill="#2F333A"/>
<path d="M152.079 10.48C154.368 10.48 156.069 11.0899 157.184 12.3096C158.298 13.5294 158.858 15.3218 158.858 17.6776V21.4626C158.858 23.823 158.298 25.6107 157.184 26.8305C156.069 28.0503 154.368 28.6602 152.079 28.6602H149.929V39.6055H145.383V10.48H152.079ZM149.929 14.6421V24.5073H152.079C152.796 24.5073 153.346 24.3118 153.734 23.9254C154.118 23.539 154.312 22.8174 154.312 21.7605V17.3889C154.312 16.3367 154.118 15.6151 153.734 15.2241C153.346 14.8376 152.796 14.6421 152.079 14.6421H149.929Z" fill="#2F333A"/>
<path d="M165.651 39.6102H160.98V10.48H165.031V28.9162L166.686 22.5054L170.404 10.48H175.407V39.6102H171.315V19.0929L169.456 26.2532L165.651 39.6102Z" fill="#2F333A"/>
<path d="M182.718 22.7568H188.96V26.919H182.718V35.448H190.57V39.6102H178.168V10.48H190.57V14.6421H182.718V22.7568Z" fill="#2F333A"/>
<path d="M207.475 10.48C209.843 10.48 211.558 11.034 212.622 12.1467C213.681 13.2547 214.213 14.9354 214.213 17.1841V18.2269C214.213 19.726 213.977 20.9598 213.51 21.9328C213.043 22.9058 212.298 23.6274 211.276 24.0977C212.516 24.5679 213.389 25.3407 213.903 26.4068C214.411 27.473 214.666 28.7859 214.666 30.3408V32.7152C214.666 34.9639 214.088 36.6771 212.932 37.855C211.776 39.0329 210.051 39.6241 207.767 39.6241H200.618V10.48H207.475ZM205.163 14.6421V22.3425H206.939C207.794 22.3425 208.46 22.119 208.946 21.6767C209.427 21.2345 209.667 20.429 209.667 19.2651V17.6403C209.667 16.5882 209.482 15.8246 209.108 15.3498C208.738 14.8795 208.15 14.6421 207.35 14.6421H205.163ZM205.163 26.4999V35.448H207.767C208.539 35.448 209.121 35.2385 209.524 34.8242C209.921 34.4098 210.125 33.6603 210.125 32.5755V30.0382C210.125 28.6788 209.898 27.7477 209.441 27.2495C208.987 26.7514 208.234 26.4999 207.189 26.4999H205.163Z" fill="#2F333A"/>
<path d="M237.814 28.7486V32.6174C237.814 34.9778 237.24 36.7842 236.098 38.0505C234.956 39.3122 233.268 39.9453 231.035 39.9453C228.802 39.9453 227.114 39.3168 225.972 38.0505C224.829 36.7888 224.256 34.9778 224.256 32.6174V17.4727C224.256 15.117 224.829 13.3059 225.972 12.0442C227.114 10.7826 228.802 10.1494 231.035 10.1494C233.268 10.1494 234.956 10.7826 236.098 12.0442C237.24 13.3059 237.814 15.117 237.814 17.4727V20.3033H233.513V17.184C233.513 16.1319 233.301 15.387 232.871 14.9587C232.441 14.5303 231.872 14.3115 231.155 14.3115C230.438 14.3115 229.865 14.5257 229.44 14.9587C229.014 15.387 228.797 16.1319 228.797 17.184V32.9154C228.797 33.9722 229.01 34.7031 229.44 35.1221C229.865 35.5365 230.438 35.746 231.155 35.746C231.872 35.746 232.445 35.5365 232.871 35.1221C233.296 34.7078 233.513 33.9722 233.513 32.9154V28.7532H237.814V28.7486Z" fill="#2F333A"/>
<path d="M244.778 22.7568H251.02V26.919H244.778V35.448H252.629V39.6102H240.228V10.48H252.629V14.6421H244.778V22.7568Z" fill="#2F333A"/>
<path d="M254.451 10.48H268.504V14.6421H263.75V39.6102H259.205V14.6421H254.451V10.48Z" fill="#2F333A"/>
<path d="M275.241 39.6102H270.571V10.48H274.621V28.9162L276.277 22.5054L279.995 10.48H284.998V39.6102H280.906V19.0929L279.047 26.2532L275.241 39.6102Z" fill="#2F333A"/>
<path d="M284.998 53.7586H234.461V55.2586H284.998V53.7586Z" fill="#939DA5"/>
<path d="M127.641 53.7586H77.1042V55.2586H127.641V53.7586Z" fill="#939DA5"/>
<path d="M138.137 48.6421V50.6673H139.876V51.8684H138.137V57.2596C138.137 58.0604 138.507 58.4608 139.247 58.4608C139.497 58.4608 139.7 58.4468 139.867 58.4189V59.6433C139.659 59.6945 139.349 59.7178 138.942 59.7178C138.137 59.7178 137.559 59.5362 137.213 59.1684C136.87 58.796 136.699 58.1814 136.699 57.3201V51.8731H135.46V50.6719H136.699V48.6467H138.137V48.6421Z" fill="#939DA5"/>
<path d="M141.471 50.6673H142.831V52.1245H142.863C142.997 51.6543 143.256 51.2772 143.649 50.9979C144.042 50.7185 144.5 50.5835 145.023 50.5835C145.249 50.5835 145.434 50.6021 145.577 50.6394V52.0733C145.425 52.0081 145.175 51.9756 144.833 51.9756C144.255 51.9756 143.793 52.1711 143.441 52.5575C143.09 52.9486 142.909 53.456 142.909 54.0892V59.648H141.471V50.6673Z" fill="#939DA5"/>
<path d="M154.285 59.6479H152.925V58.1628H152.893C152.329 59.2056 151.358 59.7271 149.97 59.7271C148.995 59.7271 148.222 59.4291 147.654 58.8378C147.085 58.2512 146.803 57.4458 146.803 56.4216V50.6626H148.241V56.1702C148.241 56.9058 148.431 57.4644 148.805 57.8555C149.175 58.2419 149.711 58.4374 150.41 58.4374C151.145 58.4374 151.732 58.2047 152.171 57.7391C152.62 57.2735 152.842 56.6543 152.842 55.8815V50.6672H154.28V59.6479H154.285Z" fill="#939DA5"/>
<path d="M157.013 51.3144C157.623 50.8303 158.419 50.5882 159.39 50.5882C160.296 50.5882 161.054 50.8303 161.674 51.3191C162.284 51.8033 162.608 52.4132 162.636 53.1534H161.253C161.207 52.7298 161.017 52.3992 160.675 52.1525C160.333 51.9104 159.889 51.7847 159.343 51.7847C158.793 51.7847 158.349 51.9057 158.012 52.1431C157.674 52.3806 157.508 52.6972 157.508 53.0929C157.508 53.6888 158.012 54.1125 159.015 54.3685L160.375 54.7084C161.272 54.9365 161.91 55.2298 162.28 55.593C162.645 55.9468 162.825 56.4542 162.825 57.1107C162.825 57.8789 162.492 58.5027 161.831 58.9916C161.175 59.4804 160.328 59.7271 159.297 59.7271C158.335 59.7271 157.54 59.4897 156.907 59.0102C156.273 58.526 155.917 57.8975 155.848 57.12H157.295C157.448 58.0604 158.15 58.526 159.399 58.526C160.005 58.526 160.49 58.4049 160.846 58.1675C161.198 57.9347 161.378 57.6135 161.378 57.2085C161.378 56.8919 161.272 56.6405 161.064 56.4496C160.855 56.268 160.495 56.1097 159.986 55.9747L158.423 55.565C156.874 55.16 156.097 54.3592 156.097 53.1674C156.088 52.4178 156.398 51.7986 157.013 51.3144Z" fill="#939DA5"/>
<path d="M166.293 48.6421V50.6673H168.032V51.8684H166.293V57.2596C166.293 58.0604 166.663 58.4608 167.403 58.4608C167.653 58.4608 167.856 58.4468 168.023 58.4189V59.6433C167.815 59.6945 167.505 59.7178 167.098 59.7178C166.293 59.7178 165.715 59.5362 165.369 59.1684C165.026 58.796 164.855 58.1814 164.855 57.3201V51.8731H163.616V50.6719H164.855V48.6467H166.293V48.6421Z" fill="#939DA5"/>
<path d="M170.057 58.4888C169.313 57.6601 168.938 56.552 168.938 55.1553C168.938 53.7633 169.313 52.6506 170.057 51.8219C170.802 50.9932 171.801 50.5789 173.054 50.5789C174.307 50.5789 175.306 50.9932 176.05 51.8219C176.795 52.6506 177.169 53.7587 177.169 55.1553C177.169 56.552 176.795 57.6601 176.05 58.4888C175.306 59.3175 174.307 59.7318 173.054 59.7318C171.801 59.7318 170.802 59.3175 170.057 58.4888ZM174.996 57.5716C175.463 56.9896 175.699 56.1842 175.699 55.1553C175.699 54.1218 175.463 53.3164 174.996 52.7391C174.533 52.1618 173.886 51.8731 173.049 51.8731C172.217 51.8731 171.569 52.1618 171.102 52.7391C170.635 53.321 170.4 54.1264 170.4 55.1553C170.4 56.1842 170.635 56.9896 171.102 57.5716C171.569 58.1489 172.221 58.4375 173.049 58.4375C173.886 58.4375 174.533 58.1489 174.996 57.5716Z" fill="#939DA5"/>
<path d="M178.681 50.6673H180.041V52.1245H180.073C180.207 51.6543 180.466 51.2772 180.859 50.9979C181.252 50.7185 181.71 50.5835 182.233 50.5835C182.459 50.5835 182.644 50.6021 182.787 50.6394V52.0733C182.635 52.0081 182.385 51.9756 182.043 51.9756C181.465 51.9756 180.998 52.1711 180.651 52.5575C180.3 52.9486 180.119 53.456 180.119 54.0892V59.648H178.681V50.6673Z" fill="#939DA5"/>
<path d="M184.748 62.1807C184.073 61.7244 183.684 61.1239 183.583 60.379H185.081C185.187 60.7514 185.446 61.0494 185.858 61.2682C186.265 61.487 186.764 61.5941 187.356 61.5941C188.128 61.5941 188.739 61.4032 189.192 61.0261C189.645 60.6536 189.872 60.1462 189.872 59.5083V58.1024H189.839C189.243 59.1312 188.29 59.6434 186.977 59.6434C185.844 59.6434 184.938 59.229 184.244 58.4003C183.55 57.567 183.199 56.4729 183.199 55.1181C183.199 53.7447 183.546 52.646 184.244 51.8173C184.938 50.9886 185.862 50.5742 187.009 50.5742C188.322 50.5742 189.289 51.0863 189.913 52.1152H189.936V50.658H191.31V59.392C191.31 60.4628 190.949 61.3101 190.232 61.9246C189.511 62.5392 188.521 62.8511 187.268 62.8511C186.26 62.8557 185.419 62.6323 184.748 62.1807ZM189.141 57.4645C189.626 56.864 189.867 56.0818 189.867 55.1228C189.867 54.1544 189.626 53.3722 189.141 52.7717C188.66 52.1711 188.031 51.8731 187.245 51.8731C186.468 51.8731 185.844 52.1664 185.372 52.7577C184.905 53.3536 184.669 54.1404 184.669 55.1228C184.669 56.1004 184.905 56.8826 185.372 57.4738C185.839 58.0605 186.464 58.3584 187.245 58.3584C188.031 58.3584 188.66 58.0605 189.141 57.4645Z" fill="#939DA5"/>
<path d="M193.77 59.4571C193.589 59.2755 193.497 59.0474 193.497 58.782C193.497 58.512 193.589 58.2839 193.77 58.107C193.95 57.9254 194.176 57.8323 194.44 57.8323C194.708 57.8323 194.935 57.9254 195.111 58.107C195.291 58.2839 195.383 58.512 195.383 58.782C195.383 59.0474 195.291 59.2755 195.111 59.4571C194.935 59.6387 194.713 59.7318 194.44 59.7318C194.172 59.7318 193.95 59.6387 193.77 59.4571Z" fill="#939DA5"/>
<path d="M203.027 53.591C202.934 53.0836 202.694 52.6785 202.306 52.3759C201.885 52.0407 201.353 51.8778 200.71 51.8778C199.929 51.8778 199.3 52.1757 198.824 52.7763C198.338 53.3769 198.093 54.1683 198.093 55.16C198.093 56.1703 198.338 56.9757 198.828 57.5669C199.305 58.1489 199.933 58.4422 200.724 58.4422C202.014 58.4422 202.787 57.8882 203.041 56.7755H204.456C204.336 57.66 203.933 58.3724 203.254 58.9078C202.569 59.4571 201.723 59.7318 200.715 59.7318C199.48 59.7318 198.491 59.3221 197.751 58.5074C197.002 57.674 196.627 56.5567 196.627 55.16C196.627 53.7819 197.002 52.6739 197.746 51.8359C198.491 51.0025 199.476 50.5882 200.701 50.5882C201.755 50.5882 202.634 50.8954 203.332 51.5053C203.98 52.064 204.349 52.7623 204.442 53.5957H203.027V53.591Z" fill="#939DA5"/>
<path d="M206.523 58.4888C205.778 57.6601 205.404 56.552 205.404 55.1553C205.404 53.7633 205.778 52.6506 206.523 51.8219C207.267 50.9932 208.266 50.5789 209.519 50.5789C210.772 50.5789 211.771 50.9932 212.516 51.8219C213.26 52.6506 213.635 53.7587 213.635 55.1553C213.635 56.552 213.26 57.6601 212.516 58.4888C211.771 59.3175 210.772 59.7318 209.519 59.7318C208.266 59.7318 207.267 59.3175 206.523 58.4888ZM211.461 57.5716C211.928 56.9896 212.164 56.1842 212.164 55.1553C212.164 54.1218 211.928 53.3164 211.461 52.7391C210.999 52.1618 210.352 51.8731 209.515 51.8731C208.682 51.8731 208.035 52.1618 207.568 52.7391C207.101 53.321 206.865 54.1264 206.865 55.1553C206.865 56.1842 207.101 56.9896 207.568 57.5716C208.035 58.1489 208.687 58.4375 209.515 58.4375C210.352 58.4375 210.999 58.1489 211.461 57.5716Z" fill="#939DA5"/>
<path d="M215.142 50.6673H216.502V52.1245H216.534C216.742 51.645 217.075 51.2679 217.528 50.9932C217.977 50.7232 218.49 50.5835 219.068 50.5835C220.326 50.5835 221.158 51.1515 221.565 52.2828H221.597C221.852 51.7474 222.226 51.3331 222.721 51.0351C223.216 50.7372 223.775 50.5835 224.399 50.5835C225.283 50.5835 225.986 50.8489 226.508 51.3843C227.04 51.9197 227.303 52.6273 227.303 53.5166V59.648H225.865V53.8471C225.865 53.2233 225.703 52.7437 225.375 52.3992C225.042 52.05 224.58 51.8731 223.983 51.8731C223.387 51.8731 222.901 52.0733 222.517 52.4737C222.129 52.8741 221.939 53.3815 221.939 54.0007V59.648H220.501V53.6749C220.501 53.1301 220.335 52.6925 219.997 52.3666C219.655 52.0407 219.207 51.8731 218.647 51.8731C218.051 51.8731 217.556 52.0826 217.167 52.497C216.774 52.9206 216.58 53.4421 216.58 54.0706V59.6433H215.142V50.6673Z" fill="#939DA5"/>
</svg>
